<?xml version="1.0" standalone="no"?>
<!DOCTYPE svg PUBLIC "-//W3C//DTD SVG 20010904//EN"
 "http://www.w3.org/TR/2001/REC-SVG-20010904/DTD/svg10.dtd">
<svg version="1.0" xmlns="http://www.w3.org/2000/svg"
 width="700.000000pt" height="700.000000pt" viewBox="0 0 700.000000 700.000000"
 preserveAspectRatio="xMidYMid meet">
<metadata>
Created by potrace 1.14, written by Peter Selinger 2001-2017
</metadata>
<g transform="translate(0.000000,700.000000) scale(0.100000,-0.100000)"
fill="#000000" stroke="none">
<path d="M575 6981 c-271 -67 -491 -286 -555 -553 -20 -82 -20 -127 -20 -2926
0 -2586 1 -2850 16 -2915 62 -275 285 -502 556 -567 82 -20 127 -20 2926 -20
2586 0 2850 1 2915 16 276 62 502 284 567 556 20 82 20 127 20 2928 0 2801 0
2846 -20 2928 -65 272 -291 494 -567 556 -65 15 -328 16 -2920 15 -2665 0
-2853 -2 -2918 -18z m3436 -1134 c26 -72 75 -208 109 -302 63 -173 140 -383
235 -645 29 -80 81 -221 115 -315 34 -93 86 -237 116 -320 29 -82 58 -159 64
-170 5 -11 32 -83 59 -160 46 -131 78 -221 232 -642 34 -93 85 -235 115 -318
29 -82 58 -159 64 -170 5 -11 32 -83 59 -160 27 -77 77 -214 110 -305 33 -91
87 -241 121 -335 34 -93 86 -235 115 -315 112 -306 179 -489 216 -593 l38
-107 -417 0 c-431 0 -527 7 -590 39 -38 19 -130 110 -150 147 -11 21 -146 425
-282 844 -45 140 -109 335 -141 432 -33 98 -59 182 -59 188 0 6 -13 46 -29 88
-16 42 -66 192 -111 332 -102 318 -188 582 -250 770 -85 255 -149 480 -195
684 -25 110 -47 201 -49 204 -6 5 -30 -76 -76 -253 -23 -88 -57 -207 -75 -265
-47 -148 -290 -891 -400 -1225 -51 -154 -157 -476 -235 -715 -259 -793 -352
-1065 -376 -1107 -32 -55 -104 -117 -162 -139 -42 -16 -99 -18 -515 -22 l-467
-4 51 144 c28 79 75 208 103 288 29 80 56 151 59 158 4 6 32 80 61 164 30 84
82 230 116 323 120 326 172 471 226 623 29 84 58 162 64 173 6 11 35 89 65
172 29 84 81 229 115 322 35 94 86 235 115 315 29 80 81 222 115 315 34 94 88
242 120 330 32 88 83 228 113 310 30 83 83 225 116 318 34 92 89 242 122 335
125 342 168 460 210 579 l44 123 475 0 475 0 46 -133z"/>
</g>
</svg>
